<?xml version="1.0" encoding="utf-8"?>
<!-- Generator: Adobe Illustrator 25.2.1, SVG Export Plug-In . SVG Version: 6.00 Build 0)  -->
<svg version="1.1" id="Layer_1" xmlns="http://www.w3.org/2000/svg" xmlns:xlink="http://www.w3.org/1999/xlink" x="0px" y="0px"
	 viewBox="0 0 24 24" style="enable-background:new 0 0 24 24;" xml:space="preserve">
<style type="text/css">
	.st0{fill:#FFFFFF;}
</style>
<path class="st0" d="M18,4l1.8,3.6c0.1,0.2,0,0.4-0.2,0.4h-2c-0.4,0-0.7-0.2-0.9-0.6L15,4h-2l1.8,3.6c0.1,0.2,0,0.4-0.2,0.4h-2
	c-0.4,0-0.7-0.2-0.9-0.6L10,4H8l1.8,3.6C9.9,7.8,9.8,8,9.6,8h-2C7.2,8,6.9,7.8,6.7,7.4L5,4H4C2.9,4,2,4.9,2,6v12c0,1.1,0.9,2,2,2h16
	c1.1,0,2-0.9,2-2V5c0-0.6-0.5-1-1-1H18z"/>
</svg>
