<?xml version="1.0" encoding="utf-8"?>
<!-- Generator: Adobe Illustrator 25.2.1, SVG Export Plug-In . SVG Version: 6.00 Build 0)  -->
<svg version="1.1" id="Layer_1" xmlns="http://www.w3.org/2000/svg" xmlns:xlink="http://www.w3.org/1999/xlink" x="0px" y="0px"
	 viewBox="0 0 24 24" style="enable-background:new 0 0 24 24;" xml:space="preserve">
<style type="text/css">
	.st0{fill:none;}
	.st1{fill:#FFFFFF;}
</style>
<path class="st0" d="M0,0h24v24H0V0z"/>
<path class="st1" d="M10.5,17.1l4-2.3c0.7-0.4,0.7-1.4,0-1.7l-4-2.3C9.8,10.5,9,11,9,11.7v4.6C9,17,9.8,17.5,10.5,17.1z M21,6h-7.6
	l2.9-2.9c0.2-0.2,0.2-0.5,0-0.7s-0.5-0.2-0.7,0L12,6L8.4,2.3c-0.2-0.2-0.5-0.2-0.7,0s-0.2,0.5,0,0.7L10.6,6H3C1.9,6,1,6.9,1,8v12
	c0,1.1,0.9,2,2,2h18c1.1,0,2-0.9,2-2V8C23,6.9,22.1,6,21,6z M20,20H4c-0.5,0-1-0.5-1-1V9c0-0.6,0.5-1,1-1h16c0.5,0,1,0.4,1,1v10
	C21,19.5,20.5,20,20,20z"/>
</svg>
